<svg width="80" height="80" viewBox="0 0 80 80" fill="none" xmlns="http://www.w3.org/2000/svg">
<g filter="url(#filter0_d_7_124)">
<rect x="1" width="72" height="72" rx="36" fill="white"/>
<path d="M45.7403 29.2307V50.315H23.6667V19.3335H37.2985L44.7808 28.1057L45.7403 29.2307Z" fill="#51C6BA"/>
<path d="M44.8341 48.9429H24.6455V20.7061H38.4712L44.7808 28.1059L44.8341 48.9429Z" fill="white"/>
<path d="M37.2985 29.2307V19.3335L38.258 20.4585L45.7403 29.2307H37.2985Z" fill="#FECF3D"/>
<path d="M48.8611 39.6276L46.6125 37.1836H43.6177L41.3691 39.6276H40.2449V51.0377C40.2449 51.9348 40.9185 52.6671 41.7423 52.6671H48.4831C49.3069 52.6671 49.9805 51.9348 49.9805 51.0377V39.6276H48.8611Z" fill="#51C6BA"/>
<path d="M45.2993 50.6302H44.9261C44.6257 50.6302 44.364 50.3441 44.364 50.0192V42.2751C44.364 41.9502 44.6257 41.6641 44.9261 41.6641H45.2993C45.5997 41.6641 45.8614 41.9502 45.8614 42.2751V50.0192C45.8614 50.3441 45.5997 50.6302 45.2993 50.6302ZM47.921 50.6302C47.6205 50.6302 47.3588 50.3441 47.3588 50.0192V42.2751C47.3588 41.9502 47.6205 41.6641 47.921 41.6641C48.2214 41.6641 48.4831 41.9502 48.4831 42.2751V50.0192C48.4831 50.3441 48.2214 50.6302 47.921 50.6302ZM42.3044 50.6302C42.004 50.6302 41.7423 50.3441 41.7423 50.0192V42.2751C41.7423 41.9502 42.004 41.6641 42.3044 41.6641C42.6049 41.6641 42.8666 41.9502 42.8666 42.2751V50.0192C42.8666 50.3441 42.6049 50.6302 42.3044 50.6302Z" fill="white"/>
<path d="M40.2449 37.998H49.9854C50.3973 37.998 50.7365 38.3666 50.7365 38.8127V39.6274H39.4938V38.8127C39.4938 38.3617 39.833 37.998 40.2449 37.998Z" fill="#FECF3D"/>
<path d="M42.7309 32.0576L43.138 32.591C43.2591 32.751 43.1234 33.0225 42.8375 33.1971L34.861 38.1821C34.5751 38.3615 34.2455 38.3761 34.1292 38.2209L33.7222 37.6875C33.601 37.5274 33.7367 37.2559 34.0226 37.0813L41.9992 32.0964C42.2802 31.9169 42.6098 31.8975 42.7309 32.0576Z" fill="#51C6BA"/>
<path d="M32.4283 33.2118L32.7869 33.784C32.8935 33.9537 32.753 34.2301 32.4816 34.3998L27.5726 37.4209C27.2964 37.5906 26.9862 37.5906 26.8844 37.4209L26.5258 36.8487C26.4192 36.6789 26.5598 36.4025 26.8311 36.2328L31.7402 33.2118C32.0164 33.042 32.3265 33.042 32.4283 33.2118Z" fill="#51C6BA"/>
<path d="M35.0694 37.828L34.4588 38.1481C34.2795 38.2451 33.9887 38.0996 33.8142 37.8329L31.3476 34.0942C31.1683 33.8274 31.1732 33.5316 31.3525 33.4347L31.9631 33.1146C32.1424 33.0176 32.4331 33.1631 32.6076 33.4298L35.0742 37.1685C35.2535 37.4352 35.2487 37.731 35.0694 37.828Z" fill="#51C6BA"/>
<path d="M27.2382 38.0416C27.8056 38.0416 28.2656 37.5553 28.2656 36.9554C28.2656 36.3555 27.8056 35.8691 27.2382 35.8691C26.6708 35.8691 26.2108 36.3555 26.2108 36.9554C26.2108 37.5553 26.6708 38.0416 27.2382 38.0416Z" fill="#FECF3D"/>
<path d="M31.9534 35.1368C32.5207 35.1368 32.9807 34.6505 32.9807 34.0506C32.9807 33.4507 32.5207 32.9644 31.9534 32.9644C31.386 32.9644 30.926 33.4507 30.926 34.0506C30.926 34.6505 31.386 35.1368 31.9534 35.1368Z" fill="#FECF3D"/>
<path d="M34.4297 38.42C34.9971 38.42 35.457 37.9337 35.457 37.3338C35.457 36.7339 34.9971 36.2476 34.4297 36.2476C33.8623 36.2476 33.4023 36.7339 33.4023 37.3338C33.4023 37.9337 33.8623 38.42 34.4297 38.42Z" fill="#FECF3D"/>
<path d="M42.2996 33.6676C42.867 33.6676 43.327 33.1812 43.327 32.5813C43.327 31.9814 42.867 31.4951 42.2996 31.4951C41.7322 31.4951 41.2723 31.9814 41.2723 32.5813C41.2723 33.1812 41.7322 33.6676 42.2996 33.6676Z" fill="#FECF3D"/>
</g>
<defs>
<filter id="filter0_d_7_124" x="0" y="0" width="80" height="80" filterUnits="userSpaceOnUse" color-interpolation-filters="sRGB">
<feFlood flood-opacity="0" result="BackgroundImageFix"/>
<feColorMatrix in="SourceAlpha" type="matrix" values="0 0 0 0 0 0 0 0 0 0 0 0 0 0 0 0 0 0 127 0" result="hardAlpha"/>
<feOffset dx="3" dy="4"/>
<feGaussianBlur stdDeviation="2"/>
<feComposite in2="hardAlpha" operator="out"/>
<feColorMatrix type="matrix" values="0 0 0 0 0 0 0 0 0 0 0 0 0 0 0 0 0 0 0.12 0"/>
<feBlend mode="normal" in2="BackgroundImageFix" result="effect1_dropShadow_7_124"/>
<feBlend mode="normal" in="SourceGraphic" in2="effect1_dropShadow_7_124" result="shape"/>
</filter>
</defs>
</svg>
