<svg width="80" height="80" viewBox="0 0 80 80" fill="none" xmlns="http://www.w3.org/2000/svg">
<g filter="url(#filter0_d_38_597)">
<rect x="1" width="72" height="72" rx="36" fill="white"/>
<path d="M51.2059 40.4181C51.0821 40.4406 50.0695 40.7672 48.9557 41.1272C47.8418 41.4763 46.4355 41.9152 45.8391 42.084L44.7477 42.3991L44.9278 42.7482C45.4004 43.6491 44.9618 44.7182 43.9377 45.2476C43.0374 45.698 42.0703 45.8553 40.1126 45.8553C38.4248 45.8553 36.5908 45.7539 36.6696 45.664C36.6921 45.6416 37.9297 45.5741 39.4034 45.5177C42.4301 45.3939 43.0824 45.27 43.544 44.7297C44.1064 44.0541 44.0615 43.0633 43.4542 42.3991L43.0829 41.9936L41.0014 41.9037C39.865 41.8588 38.6723 41.7914 38.3684 41.7459C37.0519 41.5772 36.1746 41.4308 35.1171 41.2281C33.0356 40.8001 31.258 41.1382 29.9081 42.1964C28.4119 43.3674 26.9941 44.2004 23.675 45.8443L20.3333 47.4992L20.6033 47.9831C21.571 49.672 23.8212 51.1242 26.2515 51.5971L26.9377 51.7324L27.5565 51.2255C29.7843 49.4128 33.1369 48.6588 37.8174 48.9065C42.4755 49.1656 42.5993 49.1317 46.3117 46.7562C47.3916 46.0695 49.4846 44.7861 50.9583 43.9077L53.6247 42.3092V41.8928C53.6247 41.3859 53.1182 40.7442 52.5782 40.5754C52.0837 40.4181 51.4758 40.3507 51.2059 40.4181Z" fill="#51C6BA"/>
<path d="M42.8625 22.4422L42.4447 22.7192L34.1938 28.253L32.5123 29.3817C32.3713 29.4758 32.2042 29.5228 32.0475 29.5228C31.7864 29.5228 31.5305 29.4026 31.3739 29.1832C31.118 28.8226 31.2068 28.3314 31.5775 28.0806L34.199 26.3248L41.9277 21.1411C42.0687 21.047 42.2358 21 42.3925 21C42.4082 21 42.4291 21 42.4447 21C42.6849 21.0157 42.9199 21.1306 43.0662 21.3397C43.3273 21.7002 43.2333 22.1914 42.8625 22.4422Z" fill="#51C6BA"/>
<path d="M53.5207 29.1885C53.3588 29.408 53.1082 29.5282 52.8471 29.5282C52.6852 29.5282 52.5233 29.4812 52.3823 29.3871L50.7008 28.2584L42.4499 22.7246L42.0321 22.4476C41.6613 22.1968 41.5673 21.7056 41.8284 21.345C41.9747 21.136 42.2097 21.021 42.4499 21.0054C42.4655 21.0054 42.4864 21.0054 42.5021 21.0054C42.664 21.0054 42.8259 21.0524 42.9669 21.1465L50.6956 26.3302L53.3171 28.0859C53.6878 28.3368 53.7766 28.828 53.5207 29.1885Z" fill="#51C6BA"/>
<path d="M50.6955 29.6324V38.3276C50.6955 38.9965 50.1368 39.5347 49.4422 39.5347H35.447C34.7577 39.5347 34.1937 38.9965 34.1937 38.3276V29.6324C34.1937 29.2352 34.3921 28.8642 34.7316 28.6395L41.9224 23.8164C42.0634 23.7223 42.2305 23.6753 42.3924 23.6753C42.4081 23.6753 42.429 23.6753 42.4446 23.6753C42.4655 23.6753 42.4812 23.6753 42.4968 23.6753C42.6587 23.6753 42.8206 23.7223 42.9668 23.8164L50.1577 28.6395C50.4971 28.8642 50.6955 29.2352 50.6955 29.6324Z" fill="#FECF3D"/>
<path d="M44.5388 29.3345H40.3559C40.7893 27.8504 41.5674 26.8628 42.4499 26.8628C43.3325 26.8628 44.1053 27.8504 44.5388 29.3345Z" fill="#51C6BA"/>
<path d="M44.8782 30.9908L40.0164 31.5604C40.0373 31.1163 40.0843 30.693 40.1574 30.2906L44.6693 29.7158C44.7581 30.113 44.8312 30.5415 44.8782 30.9908Z" fill="#51C6BA"/>
<path d="M40.2044 33.6978L44.6902 34.7481C44.262 36.3053 43.4682 37.3556 42.5596 37.3556C41.4577 37.3556 40.523 35.8193 40.2044 33.6978Z" fill="#51C6BA"/>
<path d="M44.9043 32.109C44.9043 32.5636 44.8782 33.0026 44.826 33.4206L39.9955 32.8563C39.9903 32.8092 39.9903 32.7674 39.9851 32.7204L44.8886 31.5708C44.8991 31.7485 44.9043 31.9261 44.9043 32.109Z" fill="#51C6BA"/>
</g>
<defs>
<filter id="filter0_d_38_597" x="0" y="0" width="80" height="80" filterUnits="userSpaceOnUse" color-interpolation-filters="sRGB">
<feFlood flood-opacity="0" result="BackgroundImageFix"/>
<feColorMatrix in="SourceAlpha" type="matrix" values="0 0 0 0 0 0 0 0 0 0 0 0 0 0 0 0 0 0 127 0" result="hardAlpha"/>
<feOffset dx="3" dy="4"/>
<feGaussianBlur stdDeviation="2"/>
<feComposite in2="hardAlpha" operator="out"/>
<feColorMatrix type="matrix" values="0 0 0 0 0 0 0 0 0 0 0 0 0 0 0 0 0 0 0.12 0"/>
<feBlend mode="normal" in2="BackgroundImageFix" result="effect1_dropShadow_38_597"/>
<feBlend mode="normal" in="SourceGraphic" in2="effect1_dropShadow_38_597" result="shape"/>
</filter>
</defs>
</svg>
